/* XPM */
const char * cancel2_xpm[] = {
"22 22 15 1",
" 	c None",
".	c #FF0000",
"+	c #FF5252",
"@	c #B52323",
"#	c #FF7676",
"$	c #FF5656",
"%	c #FF3636",
"&	c #FF6666",
"*	c #FF0404",
"=	c #FF3A3A",
"-	c #FF0101",
";	c #FF5F5F",
">	c #FF0202",
",	c #FF0B0B",
"'	c #FF1C1C",
"                      ",
"                      ",
"                      ",
"    ..+          @.   ",
"    @..#        @..   ",
"     @..$      @%.&   ",
"      @..&    @..&    ",
"       @..&  @.%+     ",
"        @.*#...+      ",
"        @.....+       ",
"        =....+        ",
"        -...;         ",
"      &..&>.@         ",
"     &,@  +..@        ",
"    &.@    +.*@       ",
"   &.@      +'.@      ",
"   ,.@       +..@@    ",
"   ,@         ++..    ",
"                      ",
"                      ",
"                      ",
"                      "};
