/* XPM */
const char * down_xpm[] = {
"20 20 30 1",
" 	c None",
".	c #9FC487",
"+	c #4A8423",
"@	c #53B257",
"#	c #36963E",
"$	c #278733",
"%	c #1A7A29",
"&	c #106D20",
"*	c #3B7A11",
"=	c #419907",
"-	c #EAF9E0",
";	c #B1F981",
">	c #B4FF83",
",	c #97EF5D",
"'	c #65BA2C",
")	c #57AA20",
"!	c #5EB227",
"~	c #7CE537",
"{	c #6DAD43",
"]	c #6BC62D",
"^	c #B6E298",
"/	c #A4FA6A",
"(	c #76B54C",
"_	c #83AE7B",
":	c #9FE570",
"<	c #9CF263",
"[	c #41C229",
"}	c #93F453",
"|	c #91DB60",
"1	c #4E991D",
"                    ",
"                    ",
"                    ",
"  ................  ",
"   +@@##$%%%%&&&&*  ",
"   =-;>>;,')!@@%&.  ",
"   .=>;>>~'{]@$&^   ",
"    =->>;/(_{#%&    ",
"    .=>;>:('@$&^    ",
"     =->>/{{#%&     ",
"     .=>;<[@$&^     ",
"      =->}@#%&      ",
"      .=;:[$&^      ",
"       =-,#%&       ",
"       .=:$&^       ",
"        =|%&        ",
"        .1&^        ",
"         &&         ",
"                    ",
"                    "};
