/* XPM */
static char *magick[] = {
/* columns rows colors chars-per-pixel */
"22 22 10 1",
"  c #000000",
". c #080203",
"X c #303030",
"o c #6a6a6a",
"O c #9b9b9b",
"+ c #a0a0a0",
"@ c #e2e2e2",
"# c #e8e8e8",
"$ c #ffffff",
"% c None",
/* pixels */
"%%%%%%%%%%%%%%%%%%%%%%",
"%%%%%%%%%%%%%%%%%%%%%%",
"%%  . %%%%%%%%%%%%%%%%",
"%   %  %%%%%%%%%%   %%",
"%  %%%  %%%%%%%% $#O %",
"%  %%%%  %%%%%% $#O %%",
"%%  %%%% %%%%% $#O %%%",
"%%%   %  %%%% $#O %%%%",
"%%%%%     %% $#O %%%%%",
"%%%%%%%     $#O %%%%%%",
"%%%%%%%%%+ $#O %%%%%%%",
"%%%%%%%%% $XO %%%%%%%%",
"%%%%%%%    $ o %%%%%%%",
"%%%%%       $@O %%%%%%",
"%%%   %  %%% $@O %%%%%",
"%%  %%%% %%%% $@O %%%%",
"%  %%%%  %%%%% $@O %%%",
"%  %%%  %%%%%%% $@O %%",
"%  %%  %%%%%%%%% $@O %",
"%%  . %%%%%%%%%%%   %%",
"%%%%%%%%%%%%%%%%%%%%%%",
"%%%%%%%%%%%%%%%%%%%%%%"
};
