/* XPM */
static char *magick[] = {
/* columns rows colors chars-per-pixel */
"22 22 68 1",
"  c #000000",
". c #0a0a0a",
"X c #131313",
"o c #1a1a1a",
"O c #242424",
"+ c #2a2a2a",
"@ c #323232",
"# c #3c3c3c",
"$ c #444444",
"% c #4b4b4b",
"& c #535353",
"* c #820202",
"= c #857f7a",
"- c #fe0202",
"; c #fe7e7a",
": c #989898",
"> c #a09b97",
", c #bab2aa",
"< c #b4b4b4",
"1 c #c7a081",
"2 c #c8a487",
"3 c #c8a488",
"4 c #c9a88e",
"5 c #cbad94",
"6 c #cdb39c",
"7 c #c6b8ac",
"8 c #ceb5a0",
"9 c #cfb8a5",
"0 c #d1bdac",
"q c #faaea3",
"w c #febebe",
"e c #d6c0af",
"r c #d2c0b2",
"t c #d4c4b8",
"y c #d6c8be",
"u c #e7c2a2",
"i c #e9c5a6",
"p c #eac9ad",
"a c #ecceb4",
"s c #eed3bb",
"d c #c6c6c6",
"f c #cfcbc4",
"g c #c9c9c9",
"h c #d4cac3",
"j c #d9cec6",
"k c #d8d0ca",
"l c #d6d6d6",
"z c #dedede",
"x c #efd7c1",
"c c #efd8c3",
"v c #eadfd5",
"b c #f1d9c5",
"n c #f2ddcc",
"m c #fad2ce",
"M c #e4e0db",
"N c #f2e0cf",
"B c #f4e2d3",
"V c #f5e6d9",
"C c #f6e8db",
"Z c #e0e0e0",
"A c #ececec",
"S c #f7ebe1",
"D c #f0eeec",
"F c #faf2eb",
"G c #fbf6f2",
"H c #fdf9f6",
"J c #ffffff",
"K c None",
/* pixels */
"KKK&%$#++Oo..  KKKKKKK",
"KKK%zzzzzzld< : KKKKKK",
"KKK$zJJJJJJAzog: KKKKK",
"KKK$zJJJJJJJA+Jg: KKKK",
"KKK#zJJJJJJJJ#ZJg: KKK",
"KKK@zJJJJJJJJ&#+X  KKK",
"KKK+zJJJJJJJJJDf,= KKK",
"KKKOzJJJJJJJJJHMh> KKK",
"KKKozJJJJJJJJHFFv, KKK",
"KKKozJwJJJJHGFqwV7 KKK",
"KKKozJ*-JJJJHq-*V7 KKK",
"KKKXzJZ*-mHGq-*jBr KKK",
"KKK.zJJZ*-mm-*jBn0 KKK",
"KKK.zJJJz*--*jBnb9 KKK",
"KKK.zJJJHm--qVBnb9 KKK",
"KKK zJJHm-**-qnxs6 KKK",
"KKK zJHm-*jj*-qsa6 KKK",
"KKK zHm-*jVne*-qp5 KKK",
"KKK zG;*hVBbx6*;i4 KKK",
"KKK zFSCBnbxsapiu2 KKK",
"KKK kkjytr09665431 KKK",
"KKK                KKK"
};
