/* XPM */
static char *magick[] = {
/* columns rows colors chars-per-pixel */
"22 22 52 1",
"  c #000000",
". c #121212",
"X c #313131",
"o c #3c3b3c",
"O c #474646",
"+ c #4d4d4d",
"@ c #564c45",
"# c #5a5552",
"$ c #5c5b5b",
"% c #786a5c",
"& c #7b6e64",
"* c #7d746e",
"= c #747474",
"- c #7f7975",
"; c #807c79",
": c #998778",
"> c #828282",
", c #898989",
"< c #9f958d",
"1 c #a4a4a4",
"2 c #c9a88c",
"3 c #cbad94",
"4 c #ccb097",
"5 c #ceb49f",
"6 c #c0b5ac",
"7 c #ceb6a0",
"8 c #cfb9a5",
"9 c #c1bab3",
"0 c #d1bdab",
"q c #c4c0bd",
"w c #d3c3b4",
"e c #d5c7ba",
"r c #d6cabf",
"t c #eed3bc",
"y c #c4c4c4",
"u c #c9c9c9",
"i c #d7ccc1",
"p c #d8d0c8",
"a c #dedede",
"s c #efd7c2",
"d c #f1dac7",
"f c #f2decc",
"g c #f3e2d3",
"h c #f5e6d9",
"j c #f6e9dd",
"k c #f4ebe4",
"l c #f8eee5",
"z c #faf2ec",
"x c #fbf6f2",
"c c #fcf8f5",
"v c #ffffff",
"b c None",
/* pixels */
"bbbbbbbbbbbbbbbbbbbbbb",
"b.........bbbbbbbbbbbb",
"b.vvvvvvX,.bbbbbbbbbbb",
"b.vvvvvvovu.bbbbbbbbbb",
"b.v>u>yvOuv,.bbbbbbbbb",
"b.vvvvvvOOoX.bbbbbbbbb",
"b.v>$u>uvy1=......bbbb",
"b.vvvvvcczk9.yvvX,.bbb",
"b.v$>u>#-<*i.yvvovu.bb",
"b.vvvczzljhr.>yvOuv,.b",
"b.v$q;#6:&&w.yvvOOoX.b",
"b.vxzlkhggf0.+>uvy1>.b",
"b.v-#6:&@:%7.yvvvvvy.b",
"b.vljhgfddt3.1>$>1>a.b",
"b.piew085432.yvvvvva.b",
"b..........  >$y1>>a.b",
"bbbbbbbbb.yyyyvvvvva.b",
"bbbbbbbbb.v>$y1>$1>a.b",
"bbbbbbbbb.vvvvvvvvva.b",
"bbbbbbbbb.aaaaaaaaaa.b",
"bbbbbbbbb............b",
"bbbbbbbbbbbbbbbbbbbbbb"
};
