/* XPM */
static char * r2_20_xpm[] = {
"20 20 39 1",
" 	c None",
".	c #E6E2E6",
"+	c #DEDEDE",
"@	c #4A8423",
"#	c #106D20",
"$	c #6ACC28",
"%	c #53B257",
"&	c #419907",
"*	c #9FC487",
"=	c #E6E6E6",
"-	c #B1F981",
";	c #36963E",
">	c #B4FF83",
",	c #EAF9E0",
"'	c #278733",
")	c #A4FA6A",
"!	c #BDEA9F",
"~	c #EEEAEE",
"{	c #1A7A29",
"]	c #97EF5D",
"^	c #7CE537",
"/	c #9FE570",
"(	c #9CF263",
"_	c #93F453",
":	c #91DB60",
"<	c #4E991D",
"[	c #519921",
"}	c #65BA2C",
"|	c #76B54C",
"1	c #6DAD43",
"2	c #41C229",
"3	c #57AA20",
"4	c #83AE7B",
"5	c #B6E298",
"6	c #5EB227",
"7	c #6BC62D",
"8	c #EEEEEE",
"9	c #F6F2F6",
"0	c #3B7A11",
"................++++",
".................+++",
"...@............#$.+",
"...%&*======....#$..",
"..*%-&&*======..#$..",
"==*;>-,&&*======#$..",
"==*;>>>-,&&*====#$..",
"==*'->->>-,&&*==#$..",
"==*'))!->>>-,&&*#$=.",
"=~*{]^)/)(_/]/:<#[=.",
"~~*{}}||12%2;'{##[==",
"~~*{314}1%;'{##5#$==",
"~~*{671%;'{##5~~#$==",
"~~*#%%;'{##58~~~#$==",
"~~*#%'{##5888~~~#$==",
"~~*#{##599888~~~#$==",
"~~*##59999888~~~#$==",
"~~*0*89999888~~~#$==",
"~~~~888888888~~~~===",
"~~~~88888888~~~~~==="};
