/* XPM */
static char *magick[] = {
/* columns rows colors chars-per-pixel */
"22 22 122 2",
"   c #000000",
".  c #121212",
"X  c #222222",
"o  c #2e2e2e",
"O  c #303030",
"+  c #3f3f40",
"@  c #404041",
"#  c #545454",
"$  c #585858",
"%  c #707071",
"&  c #06afb1",
"*  c #0ae1df",
"=  c #0cfdfa",
"-  c #409fa8",
";  c #46a4ac",
":  c #46a7b5",
">  c #4bacb4",
",  c #4cb4be",
"<  c #56adb6",
"1  c #57b5bd",
"2  c #7e8180",
"3  c #56b8c6",
"4  c #63bec8",
"5  c #6abdc9",
"6  c #4ec3ce",
"7  c #50c8d3",
"8  c #65c1ce",
"9  c #79cad4",
"0  c #74d0de",
"q  c #928173",
"w  c #a08b7a",
"e  c #808382",
"r  c #999b9a",
"t  c #a99b8e",
"y  c #aa9f94",
"u  c #ada39b",
"i  c #b4a495",
"p  c #b6a89c",
"a  c #a6a6a6",
"s  c #ababab",
"d  c #aeb6b7",
"f  c #b0a8a3",
"g  c #b0afad",
"h  c #b8ada3",
"j  c #b5b5b5",
"k  c #b6bdbc",
"l  c #bab6b2",
"z  c #bdbdbd",
"x  c #84ced7",
"c  c #85d5de",
"v  c #8bd4dc",
"b  c #95d5dd",
"n  c #9dd5de",
"m  c #81d5e1",
"M  c #84d9e2",
"N  c #8bd5e0",
"B  c #93dae5",
"V  c #9cdce5",
"C  c #99dde8",
"Z  c #bbc3c4",
"A  c #b5d1d5",
"S  c #a4dce6",
"D  c #b8dfe3",
"F  c #a6e3eb",
"G  c #ade4eb",
"H  c #b3e0e6",
"J  c #b3e7ef",
"K  c #baebef",
"L  c #bbeaf0",
"P  c #c79f80",
"I  c #c3a68f",
"U  c #c8a487",
"Y  c #c9a68a",
"T  c #caa98e",
"R  c #cbac93",
"E  c #cdb19c",
"W  c #cfb7a5",
"Q  c #c2b9b1",
"!  c #d1beae",
"~  c #d3c3b7",
"^  c #e9c7aa",
"/  c #e2cab5",
"(  c #e3cfbc",
")  c #ecceb4",
"_  c #eed5be",
"`  c #c6c5c5",
"'  c #c9cbcb",
"]  c #d5c9c0",
"[  c #d7cfc9",
"{  c #d4d4d4",
"}  c #d2dcdc",
"|  c #dedede",
" . c #c0e0e3",
".. c #c4e9ec",
"X. c #cbe2e6",
"o. c #c5ecf2",
"O. c #ceeef2",
"+. c #cbf1f4",
"@. c #d8e3e2",
"#. c #ddebed",
"$. c #d3eff4",
"%. c #d9eff2",
"&. c #d4f1f4",
"*. c #dcf3f5",
"=. c #e7d6c7",
"-. c #e5ded9",
";. c #ebdcd0",
":. c #f1dac6",
">. c #f2e0cf",
",. c #f2e0d0",
"<. c #f5e6d9",
"1. c #ececec",
"2. c #e0f3f5",
"3. c #e6f7f9",
"4. c #e9f7f9",
"5. c #ebfafa",
"6. c #f7ebe1",
"7. c #f1edea",
"8. c #faf2ec",
"9. c #fcf9f5",
"0. c #fefdfd",
"q. c None",
/* pixels */
"q.q.q.q.q.q.. . . . . q.q.q.q.q.q.q.q.q.q.q.",
"q.q.q.q.. . r d Z d r . . q.q.q.q.q.q.q.q.q.",
"q.q.q.. 2 } #.*.*.&.+.2.2 . q.q.q.q.q.q.q.q.",
"q.q.. 2 @.4.3.+.+.J S J 2.2 . q.q.q.q.q.q.q.",
"q.  . } 4.5.5.*.o.G b x G 2.. q.q.q.q.q.q.q.",
"q.. r #.3.5.4.&.L F B 9 9 J r . q.q.q.q.q.q.",
"$ . k 3.+.&.&.o.G C m 8 4 F A . q.q.q.q.q.q.",
"$ . ' 3...o.L G C M 0 3 1 G D . q.q.q.q.q.q.",
"# . Z %.H G F C M 0 6 , > B A . q.q.q.q.q.q.",
"# . r &.n N B M 0 7 , ; 5 J r . q.q.q.q.q.q.",
"# a . X.G x 9 4 3 , - : M *.. q.q.q.q.q.q.q.",
"$ s . e 2.S x 4 < ; 4 c 2.r . q.q.q.q.q.q.q.",
"$ ' z . e *.G S v c J *.r . s = q.q.q.q.q.q.",
"$ { ` j . . r A  .A r . . @ * s . q.q.q.q.q.",
"$ | 1.` j g . . . . . X q.& @ % s . q.q.q.q.",
"$ | 0.1.` l f u y t q X q.q.. @ % s . q.q.q.",
"$ | 0.9.7.-.Q h p i w o q.q.q.. @ % s . q.q.",
"$ | 0.9.8.6.;.=.( / I o q.q.q.q.. @ % s . q.",
"$ | 9.8.6.<.,.:._ ) T O q.q.q.q.q.. @ % s . ",
"$ | 8.6.<.,.:._ ) ^ Y O q.q.q.q.q.q.. @ % . ",
"$ [ [ ] ~ ! W E R Y P O q.q.q.q.q.q.q.. . q.",
"$ O O O O O O O O O O O q.q.q.q.q.q.q.q.q.q."
};
