/* XPM */
static char *magick[] = {
/* columns rows colors chars-per-pixel */
"22 22 61 1",
"  c #000000",
". c #0a0a0a",
"X c #131313",
"o c #1b1b1b",
"O c #242424",
"+ c #2a2a2a",
"@ c #323232",
"# c #3c3c3c",
"$ c #444444",
"% c #4b4b4b",
"& c #535353",
"* c #857f7a",
"= c #989898",
"- c #a09b97",
"; c #bab2aa",
": c #b4b4b4",
"> c #c7a081",
", c #c8a487",
"< c #c8a488",
"1 c #c9a88e",
"2 c #cbad94",
"3 c #cdb19b",
"4 c #c6b8ac",
"5 c #ceb5a0",
"6 c #cfb8a5",
"7 c #d1bdac",
"8 c #d2c0b2",
"9 c #d4c4b8",
"0 c #d6c8be",
"q c #e7c2a2",
"w c #e9c5a6",
"e c #eac9ad",
"r c #ecceb4",
"t c #eed2bb",
"y c #c6c6c6",
"u c #cfcbc4",
"i c #c9c9c9",
"p c #d4cac3",
"a c #d8d0ca",
"s c #d6d6d6",
"d c #dedede",
"f c #efd6c1",
"g c #efd8c3",
"h c #eadfd5",
"j c #f1d9c5",
"k c #f2ddcb",
"l c #e4e0db",
"z c #f2e0cf",
"x c #f4e2d3",
"c c #f5e6d8",
"v c #f6e9dd",
"b c #e1e1e1",
"n c #ececec",
"m c #f7ece2",
"M c #f0eeec",
"N c #f8eee5",
"B c #faf2eb",
"V c #fbf6f2",
"C c #fdf9f6",
"Z c #fffffe",
"A c None",
/* pixels */
"AAAAAAAAAAAAAAAAAAAAAA",
"AAA&%$#@+Oo..  AAAAAAA",
"AAA%ddddddsy: = AAAAAA",
"AAA$dZZZZZZnbXi= AAAAA",
"AAA$dZZZZZZZn+Zi= AAAA",
"AAA#dZZZZZZZZ#bZi= AAA",
"AAA@dZZZZZZZZ&#+X  AAA",
"AAA+dZZZZZZZZZMu;* AAA",
"AAA+dZZZZZZZZZCh0- AAA",
"AAAodZZZZZZZZVBMl; AAA",
"AAAodZZZZZZZCBBmc4 AAA",
"AAAXdZZZZZCVBNmcx8 AAA",
"AAA.dZZZZCCBNmczk7 AAA",
"AAA.dZZZCCBmmczkj6 AAA",
"AAA.dZZZCCBmmczkj6 AAA",
"AAA dZZCVBmvczkgt3 AAA",
"AAA dZCVBNvxxkftr3 AAA",
"AAA dCVBmvxxkftre2 AAA",
"AAA dBBmvxzkftrew1 AAA",
"AAA dBmcxkjftrewq, AAA",
"AAA aap0987653211> AAA",
"AAA                AAA"
};
