/* XPM */
static char *magick[] = {
/* columns rows colors chars-per-pixel */
"22 22 35 1",
"  c #000000",
". c #01332f",
"X c #3d3d3d",
"o c #024441",
"O c #015d5b",
"+ c #026664",
"@ c #444444",
"# c #4e4e4e",
"$ c #555555",
"% c #5b5b5b",
"& c #636363",
"* c #6c6c6c",
"= c #747474",
"- c #7b7b7b",
"; c #3e8786",
": c #53adab",
"> c #838383",
", c #8b8b8b",
"< c #939393",
"1 c #9a9a9a",
"2 c #a6a6a6",
"3 c #ababab",
"4 c #b3b3b3",
"5 c #bcbcbc",
"6 c #c5c5c5",
"7 c #cecece",
"8 c #d6d6d6",
"9 c #dddddd",
"0 c #d8e6e6",
"q c #dde9e9",
"w c #e2e2e2",
"e c #ececec",
"r c #eff0f0",
"t c #ffffff",
"y c None",
/* pixels */
"yyyyy% yyyyyyyyyyyyyyy",
"yyyyy 3o.%yyyyyyyyyyyy",
"yyyy%,3+++o.%yyyyyyyyy",
"yyyy 24+t:+++o.%yyyyyy",
"yyyy 4;0tttt:+++o.%yyy",
"yyy%13+tttttttt:++= %y",
"yyy 22;ttttttttt0$=# y",
"yyy 2;ettttttttt$-=$Xy",
"yy%>1OetttttttttX-# yy",
"yy <1X*tttttttt9$=# yy",
"yy <<<<$X*ttttt$-=#Xyy",
"y%=,,<<,<,$@=twX=# yyy",
"y >>@@%,,,,>-%@=*# yyy",
"y --#e<@%->>--==*$Xyyy",
"%*=%<tee8&#$==**# yyyy",
" *=$ee9ww8@%X#%&# yyyy",
"% *@e98765$=>X%&#Xyyyy",
"yy%  2654>#--#%# yyyyy",
"yyyyy%  2#%*@$&# yyyyy",
"yyyyyyyy%  &X%&#Xyyyyy",
"yyyyyyyyyyy%  $ yyyyyy",
"yyyyyyyyyyyyyy %yyyyyy"
};
