/* XPM */
static char * l2_20_xpm[] = {
"20 20 39 1",
" 	c None",
".	c #DEDEDE",
"+	c #E6E2E6",
"@	c #6ACC28",
"#	c #106D20",
"$	c #4A8423",
"%	c #E6E6E6",
"&	c #9FC487",
"*	c #419907",
"=	c #53B257",
"-	c #B1F981",
";	c #EAF9E0",
">	c #B4FF83",
",	c #36963E",
"'	c #278733",
")	c #BDEA9F",
"!	c #A4FA6A",
"~	c #519921",
"{	c #4E991D",
"]	c #91DB60",
"^	c #9FE570",
"/	c #97EF5D",
"(	c #93F453",
"_	c #9CF263",
":	c #7CE537",
"<	c #1A7A29",
"[	c #EEEAEE",
"}	c #41C229",
"|	c #6DAD43",
"1	c #76B54C",
"2	c #65BA2C",
"3	c #B6E298",
"4	c #83AE7B",
"5	c #57AA20",
"6	c #6BC62D",
"7	c #5EB227",
"8	c #EEEEEE",
"9	c #F6F2F6",
"0	c #3B7A11",
"....++++++++++++++++",
"...+++++++++++++++++",
".+@#++++++++++++$+++",
"++@#++++%%%%%%&*=+++",
"++@#++%%%%%%&**-=&++",
"++@#%%%%%%&**;->,&%%",
"++@#%%%%&**;->>>,&%%",
"++@#%%&**;->>->-'&%%",
"+%@#&**;->>>-)!!'&%%",
"+%~#{]^/^(_!^!:/<&[%",
"%%~##<',}=}|1122<&[[",
"%%@#3##<',=|24|5<&[[",
"%%@#[[3##<',=|67<&[[",
"%%@#[[[83##<',==#&[[",
"%%@#[[[8883##<'=#&[[",
"%%@#[[[888993##<#&[[",
"%%@#[[[88899993##&[[",
"%%@#[[[88899998&0&[[",
"%%%[[[[888888888[[[[",
"%%%[[[[[88888888[[[["};
