/* XPM */
static char * left_20_xpm[] = {
"20 20 31 1",
" 	c None",
".	c #4A8423",
"+	c #9FC487",
"@	c #419907",
"#	c #53B257",
"$	c #B1F981",
"%	c #EAF9E0",
"&	c #B4FF83",
"*	c #36963E",
"=	c #278733",
"-	c #BDEA9F",
";	c #A4FA6A",
">	c #106D20",
",	c #4E991D",
"'	c #91DB60",
")	c #9FE570",
"!	c #97EF5D",
"~	c #93F453",
"{	c #9CF263",
"]	c #7CE537",
"^	c #1A7A29",
"/	c #41C229",
"(	c #6DAD43",
"_	c #76B54C",
":	c #65BA2C",
"<	c #B6E298",
"[	c #83AE7B",
"}	c #57AA20",
"|	c #6BC62D",
"1	c #5EB227",
"2	c #3B7A11",
"                    ",
"                    ",
"                .   ",
"              +@#   ",
"            +@@$#+  ",
"          +@@%$&*+  ",
"        +@@%$&&&*+  ",
"      +@@%$&&$&$=+  ",
"    +@@%$&&&$-;;=+  ",
"   >,')!)~{;);]!^+  ",
"   >>^=*/#/(__::^+  ",
"    <>>^=*#(:[(}^+  ",
"      <>>^=*#(|1^+  ",
"        <>>^=*##>+  ",
"          <>>^=#>+  ",
"            <>>^>+  ",
"              <>>+  ",
"               +2+  ",
"                    ",
"                    "};
