/* XPM */
static char * ok2_xpm[] = {
"22 22 11 1",
" 	c None",
".	c #008400",
"+	c #008200",
"@	c #008D00",
"#	c #67C467",
"$	c #008C00",
"%	c #B3E6B3",
"&	c #008500",
"*	c #008600",
"=	c #008700",
"-	c #008300",
"                      ",
"     .                ",
"    +@@#         $$   ",
"     ++$        +++$  ",
"      +$%      ++$%   ",
"      +$%     ++$#    ",
"      +$%    ++$#%    ",
"      &$%   ++$#%     ",
"      .$%  ++$#%      ",
"      *$% $++#%       ",
"      +$%$++#%        ",
"      +$=++#%         ",
"      +-*$#%          ",
"      +++#%           ",
"      ++#%            ",
"      +#%             ",
"      #%              ",
"                      ",
"                      ",
"                      ",
"                      ",
"                      "};
