/* XPM */
static char * right_20_xpm[] = {
"20 20 26 1",
" 	c None",
".	c #53B257",
"+	c #419907",
"@	c #9FC487",
"#	c #CFF7B4",
"$	c #36963E",
"%	c #B4FF83",
"&	c #EAF9E0",
"*	c #278733",
"=	c #97EF5D",
"-	c #D1EFBD",
";	c #A4FA6A",
">	c #BDEA9F",
",	c #1A7A29",
"'	c #93F453",
")	c #4E991D",
"!	c #106D20",
"~	c #92C172",
"{	c #83AA7B",
"]	c #41C229",
"^	c #57AA20",
"/	c #83AE7B",
"(	c #83A57B",
"_	c #B6E298",
":	c #5EB227",
"<	c #83A573",
"                    ",
"                    ",
"                    ",
"   .+@              ",
"  @.#++@            ",
"  @$%#&++@          ",
"  @$%%%#&++@        ",
"  @*=%-%%#&++@      ",
"  @*;;>-%%%#&++@    ",
"  @,==;;;-''=#&)!@  ",
"  @,)~{~{].]$*,!!   ",
"  @,^{/](.$*,!!_    ",
"  @,:]<.$*,!!_      ",
"  @!..$*,!!_        ",
"  @!.*,!!_          ",
"  @!,!!_            ",
"  @!!_              ",
"  @@@               ",
"                    ",
"                    "};
