/* XPM */
static char * up_xpm[] = {
"20 20 29 1",
" 	c None",
".	c #106D20",
"+	c #B6E298",
"@	c #4E991D",
"#	c #9FC487",
"$	c #1A7A29",
"%	c #91DB60",
"&	c #419907",
"*	c #278733",
"=	c #9FE570",
"-	c #36963E",
";	c #97EF5D",
">	c #EAF9E0",
",	c #41C229",
"'	c #B1F981",
")	c #53B257",
"!	c #93F453",
"~	c #B4FF83",
"{	c #9CF263",
"]	c #6DAD43",
"^	c #A4FA6A",
"/	c #65BA2C",
"(	c #76B54C",
"_	c #83AE7B",
":	c #BDEA9F",
"<	c #6BC62D",
"[	c #7CE537",
"}	c #5EB227",
"|	c #57AA20",
"                    ",
"                    ",
"                    ",
"          ..        ",
"         +.@#       ",
"         .$%&       ",
"        +.*=&#      ",
"        .$-;>&      ",
"       +.*,='&#     ",
"       .$-)!~>&     ",
"      +.*),{~'&#    ",
"      .$-]]^~~>&    ",
"     +.*)/(='~'&#   ",
"     .$-]_(^:'~>&   ",
"    +.*)<]/[^~~'&#  ",
"   #.$))}|/;^'~~'&  ",
"   ##############   ",
"                    ",
"                    ",
"                    "};
